# Blender 5.0.1
# www.blender.org
mtllib sledgehammer.mtl
o Cube
v 0.201915 14.027673 -0.201915
v 0.201915 14.027673 0.193136
v 0.123341 1.318889 0.232202
v -0.193136 14.027673 -0.201915
v -0.193136 14.027673 0.193136
v 0.000000 14.027673 0.263367
v 0.263367 14.027673 0.000000
v -0.232205 1.318889 -0.123344
v -0.263367 14.027673 0.000000
v 0.000000 14.027673 -0.263367
v 0.263365 1.318889 0.000000
v -0.113687 14.027673 0.232202
v 0.241859 14.027673 0.113687
v -0.113689 1.318889 0.232202
v -0.232202 14.027673 -0.123344
v 0.123344 14.027673 -0.241859
v 0.241856 1.318889 -0.123344
v -0.113689 1.318889 -0.241859
v 0.123341 1.318889 -0.241859
v 0.123344 14.027673 0.232202
v 0.241859 14.027673 -0.123344
v 0.241856 1.318889 0.113687
v -0.232202 14.027673 0.113687
v -0.113687 14.027673 -0.241859
v -0.000002 1.318889 0.263367
v -0.232205 1.318889 0.113687
v -0.193138 1.318889 -0.201915
v -0.000002 1.318889 -0.263367
v 0.201912 1.318889 -0.201915
v -0.263370 1.318889 0.000000
v 0.201912 1.318889 0.193136
v -0.193138 1.318889 0.193136
vn -0.5412 -0.6436 0.5412
vn -0.5407 -0.6424 -0.5431
vn -0.2532 0.6839 -0.6843
vn 0.5431 -0.6424 0.5407
vn 0.5426 -0.6412 -0.5426
vn 0.0076 -0.6540 -0.7564
vn -0.7433 -0.6690 -0.0053
vn 0.6843 0.6839 0.2532
vn 0.7564 -0.6540 -0.0076
vn 0.0053 -0.6690 0.7433
vn -0.7433 0.6690 -0.0053
vn 0.2577 -0.6864 -0.6800
vn -0.6970 -0.6771 -0.2360
vn 0.2577 0.6864 -0.6800
vn 0.6843 -0.6839 0.2532
vn -0.2331 -0.6752 0.6998
vn -0.6998 0.6752 0.2331
vn 0.2360 0.6771 0.6970
vn -0.2331 0.6752 0.6998
vn -0.2532 -0.6839 -0.6843
vn -0.6998 -0.6752 0.2331
vn -0.6970 0.6771 -0.2360
vn 0.6800 -0.6864 -0.2577
vn 0.2360 -0.6771 0.6970
vn 0.0076 0.6540 -0.7564
vn 0.6800 0.6864 -0.2577
vn 0.5431 0.6424 0.5407
vn 0.0053 0.6690 0.7433
vn -0.5412 0.6436 0.5412
vn 0.7564 0.6540 -0.0076
vn -0.5407 0.6424 -0.5431
vn 0.5426 0.6412 -0.5426
vt 0.812500 0.500000
vt 0.875000 0.500000
vt 0.875000 0.687500
vt 0.875000 0.750000
vt 0.687500 0.750000
vt 0.625000 0.750000
vt 0.875000 0.625000
vt 0.875000 0.562500
vt 0.750000 0.500000
vt 0.687500 0.500000
vt 0.625000 0.500000
vt 0.625000 0.562500
vt 0.625000 0.625000
vt 0.625000 0.687500
vt 0.750000 0.750000
vt 0.812500 0.750000
s 1
usemtl Material
f 24/1/24 4/2/4 27/2/27 18/1/18
f 23/3/23 5/4/5 32/4/32 26/3/26
f 20/5/20 2/6/2 31/6/31 3/5/3
f 9/7/9 15/8/15 4/2/4 24/1/24 10/9/10 16/10/16 1/11/1 21/12/21 7/13/7 13/14/13 2/6/2 20/5/20 6/15/6 12/16/12 5/4/5 23/3/23
f 2/6/2 13/14/13 22/14/22 31/6/31
f 5/4/5 12/16/12 14/16/14 32/4/32
f 16/10/16 10/9/10 28/9/28 19/10/19
f 15/8/15 9/7/9 30/7/30 8/8/8
f 9/7/9 23/3/23 26/3/26 30/7/30
f 10/9/10 24/1/24 18/1/18 28/9/28
f 21/12/21 1/11/1 29/11/29 17/12/17
f 1/11/1 16/10/16 19/10/19 29/11/29
f 6/15/6 20/5/20 3/5/3 25/15/25
f 12/16/12 6/15/6 25/15/25 14/16/14
f 4/2/4 15/8/15 8/8/8 27/2/27
f 13/14/13 7/13/7 11/13/11 22/14/22
f 30/7/30 26/3/26 32/4/32 14/16/14 25/15/25 3/5/3 31/6/31 22/14/22 11/13/11 17/12/17 29/11/29 19/10/19 28/9/28 18/1/18 27/2/27 8/8/8
f 7/13/7 21/12/21 17/12/17 11/13/11
o Cube.001
v -0.700837 12.467706 1.358875
v -0.700837 13.656661 1.358875
v -0.700837 12.467706 -1.358875
v -0.700837 13.656661 -1.358875
v 0.700837 12.467706 1.358875
v 0.700837 13.656661 1.358875
v 0.700837 12.467706 -1.358875
v 0.700837 13.656661 -1.358875
v -0.700837 12.467706 1.358875
v -0.700837 13.656661 1.358875
v -0.700837 13.656661 -1.358875
v -0.700837 12.467706 -1.358875
v 0.700837 12.467706 -1.358875
v 0.700837 13.656661 -1.358875
v 0.700837 13.656661 1.358875
v 0.700837 12.467706 1.358875
v -0.736983 12.437045 -1.190477
v -0.736983 12.437045 1.190477
v -0.736983 13.687322 1.190477
v -0.736983 13.687322 -1.190477
v 0.736983 12.437045 -1.190477
v 0.736983 13.687322 -1.190477
v 0.736983 12.437045 1.190477
v 0.736983 13.687322 1.190477
v -0.591358 12.560570 1.471438
v -0.591358 13.563797 1.471438
v -0.591358 13.563797 -1.471438
v -0.591358 12.560570 -1.471438
v 0.591358 12.560570 -1.471438
v 0.591358 13.563797 -1.471438
v 0.591358 13.563797 1.471438
v 0.591358 12.560570 1.471438
vn -0.7169 -0.0000 0.6972
vn -0.0000 1.0000 -0.0000
vn -0.0000 0.7714 0.6364
vn -0.0000 -0.9838 -0.1791
vn -0.0000 0.9838 0.1791
vn -0.0000 -0.7714 0.6364
vn -0.9777 -0.0000 -0.2099
vn -1.0000 -0.0000 -0.0000
vn 1.0000 -0.0000 -0.0000
vn -0.0000 -1.0000 -0.0000
vn -0.0000 -0.0000 -1.0000
vn -0.0000 -0.0000 1.0000
vn -0.0000 0.9838 -0.1791
vn -0.7169 -0.0000 -0.6972
vn 0.9777 -0.0000 -0.2099
vn -0.0000 -0.7714 -0.6364
vn -0.0000 0.7714 -0.6364
vn -0.9777 -0.0000 0.2099
vn 0.7169 -0.0000 -0.6972
vn 0.9777 -0.0000 0.2099
vn 0.7169 -0.0000 0.6972
vn -0.0000 -0.9838 0.1791
vt 0.625000 0.000000
vt 0.375000 0.000000
vt 0.375000 0.750000
vt 0.625000 0.750000
vt 0.875000 0.750000
vt 0.125000 0.500000
vt 0.375000 0.500000
vt 0.125000 0.750000
vt 0.625000 0.250000
vt 0.375000 0.250000
vt 0.875000 0.500000
vt 0.625000 0.500000
vt 0.625000 1.000000
vt 0.375000 1.000000
s 0
f 42/17/33 41/18/33 57/18/33 58/17/33
f 37/19/34 38/20/34 47/20/34 48/19/34
f 47/20/35 42/21/35 58/21/35 63/20/35
f 38/20/34 34/21/34 42/21/34 47/20/34
f 35/22/36 39/23/36 53/23/36 49/22/36
f 34/21/37 38/20/37 56/20/37 51/21/37
f 41/24/38 48/19/38 64/19/38 57/24/38
f 36/25/39 35/26/39 49/26/39 52/25/39
f 36/27/34 40/28/34 46/28/34 43/27/34
f 35/26/34 36/25/34 43/25/34 44/26/34
f 34/17/34 33/18/34 41/18/34 42/17/34
f 33/24/34 37/19/34 48/19/34 41/24/34
f 40/28/34 39/23/34 45/23/34 46/28/34
f 39/23/34 35/22/34 44/22/34 45/23/34
f 50/18/40 51/17/40 52/25/40 49/26/40
f 53/23/41 54/28/41 56/20/41 55/19/41
f 49/22/42 53/23/42 55/19/42 50/24/42
f 54/28/34 52/27/34 51/21/34 56/20/34
f 60/26/43 59/25/43 62/28/43 61/23/43
f 64/19/44 63/20/44 58/29/44 57/30/44
f 40/28/45 36/27/45 52/27/45 54/28/45
f 44/26/46 43/25/46 59/25/46 60/26/46
f 39/23/47 40/28/47 54/28/47 53/23/47
f 45/23/48 44/22/48 60/22/48 61/23/48
f 43/27/49 46/28/49 62/28/49 59/27/49
f 33/18/50 34/17/50 51/17/50 50/18/50
f 46/28/51 45/23/51 61/23/51 62/28/51
f 38/20/52 37/19/52 55/19/52 56/20/52
f 48/19/53 47/20/53 63/20/53 64/19/53
f 37/19/54 33/24/54 50/24/54 55/19/54
